<svg viewBox="0 0 22 22" xmlns="http://www.w3.org/2000/svg" fill-rule="evenodd" clip-rule="evenodd" stroke-linejoin="round" stroke-miterlimit="2"><path d="M11 0c6.071 0 11 4.929 11 11s-4.929 11-11 11S0 17.071 0 11 4.929 0 11 0zm4.062 5.997a.94.94 0 0 0-.787.428l-4.647 7.107-1.998-2.221-.1-.095a.937.937 0 0 0-.581-.202.944.944 0 0 0-.939.939c0 .225.08.443.227.613l2.813 3.126.1.096a.936.936 0 0 0 1.382-.21l5.314-8.127.067-.122a.935.935 0 0 0 .085-.39.948.948 0 0 0-.936-.942z" fill-rule="nonzero"/></svg>