<svg viewBox="0 0 24 24" width="1em" height="1em" xmlns="http://www.w3.org/2000/svg" fill-rule="evenodd" clip-rule="evenodd" stroke-linejoin="round" stroke-miterlimit="2"><path d="M12 2c5.52 0 10 4.48 10 10s-4.48 10-10 10S2 17.52 2 12 6.48 2 12 2zm3.693 5.452a.854.854 0 0 0-.716.389l-4.224 6.46-1.817-2.018-.09-.087a.85.85 0 0 0-.529-.183.863.863 0 0 0-.853.853c0 .205.072.403.206.558l2.557 2.841.091.088a.851.851 0 0 0 1.257-.191l4.83-7.388.061-.111a.85.85 0 0 0 .078-.355.866.866 0 0 0-.851-.856z" fill-rule="nonzero"/></svg>