<?xml version="1.0" encoding="UTF-8" standalone="no"?><!DOCTYPE svg PUBLIC "-//W3C//DTD SVG 1.1//EN" "http://www.w3.org/Graphics/SVG/1.1/DTD/svg11.dtd"><svg width="100%" height="100%" viewBox="0 0 172 188" version="1.1" xmlns="http://www.w3.org/2000/svg" xmlns:xlink="http://www.w3.org/1999/xlink" xml:space="preserve" xmlns:serif="http://www.serif.com/" style="fill-rule:evenodd;clip-rule:evenodd;stroke-linejoin:round;stroke-miterlimit:2;"><g id="Art"><path d="M171.349,93.559l-85.674,55.739l-85.675,-55.739l0,-31.521c0,-6.099 3.084,-11.784 8.196,-15.11c15.84,-10.305 50.596,-32.917 67.649,-44.012c5.976,-3.888 13.683,-3.888 19.66,0c17.052,11.095 51.808,33.707 67.649,44.012c5.111,3.326 8.195,9.011 8.195,15.11c0,12.212 0,31.521 0,31.521Zm-139.61,-20.65l53.936,35.091l53.935,-35.091l-53.935,-35.09l-53.936,35.09Z" style="fill:#0764ff;"/><path d="M85.675,79.117l0,-41.298l85.674,55.74l0,8.066c0,6.611 -3.619,12.692 -9.431,15.845c-5.812,3.152 -12.883,2.87 -18.425,-0.736c-25.011,-16.272 -57.818,-37.617 -57.818,-37.617Z" style="fill:#9cc1ff;"/><path d="M139.61,114.208l-53.935,-35.091l-53.936,35.091l53.936,35.09l53.935,-35.09Zm31.739,10.871c0,6.099 -3.084,11.784 -8.195,15.11c-15.841,10.305 -50.597,32.917 -67.649,44.012c-5.977,3.888 -13.684,3.888 -19.66,0c-17.053,-11.095 -51.809,-33.707 -67.649,-44.012c-5.112,-3.326 -8.196,-9.011 -8.196,-15.11c0,-12.211 0,-31.52 0,-31.52l85.675,-55.74l85.674,55.74l0,31.52Z" style="fill:#9cc1ff;"/><path d="M85.675,108l0,41.298l85.674,-55.739l0,-8.067c0,-6.611 -3.619,-12.692 -9.431,-15.845c-5.812,-3.152 -12.883,-2.87 -18.425,0.736c-25.011,16.272 -57.818,37.617 -57.818,37.617Z" style="fill:#0764ff;"/></g></svg>